<svg width="12" height="12" viewBox="0 0 12 12" fill="none" xmlns="http://www.w3.org/2000/svg">
<path fill-rule="evenodd" clip-rule="evenodd" d="M0 10.6881V2.62379C0 1.89068 0.578778 1.3119 1.3119 1.3119H2.77814V0.463023C2.77814 0.231511 3.00965 0 3.27974 0H4.01286C4.28296 0 4.47588 0.231511 4.47588 0.463023V1.27331H7.52412V0.463023C7.52412 0.231511 7.71704 0 7.98714 0H8.75884C8.99035 0 9.22186 0.231511 9.22186 0.463023V1.27331H10.6881C11.4212 1.27331 12 1.89068 12 2.62379V10.6881C12 11.4212 11.4212 12 10.6881 12H1.3119C0.578778 12 0 11.4212 0 10.6881ZM1.00322 10.6881C1.00322 10.8424 1.15756 10.9968 1.3119 10.9968H10.6881C10.8424 10.9968 10.9968 10.8424 10.9968 10.6881V4.7074H1.00322V10.6881Z" fill="white"/>
</svg>
