<svg width="19" height="13" viewBox="0 0 19 13" fill="none" xmlns="http://www.w3.org/2000/svg">
<path d="M1.9 0C1.48585 0 1.10563 0.134812 0.794152 0.361111L0.801515 0.36862L9.11402 8.28297C9.29779 8.45787 9.70214 8.45787 9.88589 8.28297L18.1984 0.36862L18.2058 0.361111C17.8943 0.134812 17.5141 0 17.0999 0H1.8999H1.9ZM0.185535 1.09838C0.0680674 1.34914 0 1.62887 0 1.92593V11.0741C0 11.4367 0.104072 11.7706 0.274597 12.0596L6.15272 6.78588L0.185535 1.09838ZM18.8145 1.09838L12.8473 6.78588L18.7254 12.0596C18.8959 11.7706 19 11.4367 19 11.0741V1.92593C19 1.62887 18.9319 1.34914 18.8145 1.09838ZM6.8504 7.44792L0.95 12.7367C1.23001 12.9011 1.55187 13 1.9 13H17.1C17.4481 13 17.77 12.9011 18.05 12.7367L12.1496 7.44792L10.5391 8.98264C9.95778 9.53589 9.0422 9.53586 8.46094 8.98264L6.8504 7.44792Z" fill="white"/>
</svg>
