<svg width="16" height="17" viewBox="0 0 16 17" fill="none" xmlns="http://www.w3.org/2000/svg">
<path fill-rule="evenodd" clip-rule="evenodd" d="M3.96375 0.351642C3.74182 0.0187441 3.51989 -0.0367388 3.13151 0.0187441C2.41023 0.12971 1.74443 0.185193 1.35605 0.629056C-1.25165 3.51417 0.0244622 7.50894 4.1302 11.9476C8.29142 16.3862 12.1752 17.8842 15.2268 15.554C15.7261 15.1656 15.8371 14.4998 15.9481 13.7785C16.059 13.3901 16.0035 13.1682 15.6706 12.8908C15.6152 12.8908 12.5081 10.7824 12.5081 10.7824C11.7314 10.5605 10.9546 11.6147 10.5662 12.114C10.1224 12.6134 9.67849 12.7243 9.29011 12.4469C7.23724 11.0598 5.23986 8.89601 4.01923 6.78766C3.74182 6.3438 3.85278 5.89993 4.40761 5.56704C4.90696 5.12317 6.01662 4.45738 5.85017 3.68062C5.85017 3.68062 4.01923 0.407125 3.96375 0.351642Z" fill="white"/>
</svg>
