<svg width="12" height="12" viewBox="0 0 12 12" fill="none" xmlns="http://www.w3.org/2000/svg">
<path d="M6 0C2.69177 0 0 2.69176 0 6C0 9.30823 2.69177 12 6 12C9.30823 12 12 9.30823 12 6C12 2.69176 9.30823 0 6 0ZM6 0.923077C8.80935 0.923077 11.0769 3.19064 11.0769 6C11.0769 8.80935 8.80935 11.0769 6 11.0769C3.19065 11.0769 0.923077 8.80935 0.923077 6C0.923077 3.19064 3.19065 0.923077 6 0.923077ZM6 1.69231C5.74511 1.69231 5.53846 1.89895 5.53846 2.15385V6C5.53846 6.17069 5.63148 6.31918 5.76923 6.39903L8.83172 8.16826C9.05246 8.29571 9.33889 8.22075 9.46634 8C9.59381 7.77926 9.514 7.49763 9.29326 7.37018L6.46154 5.73557V2.15385C6.46154 1.89895 6.25491 1.69231 6 1.69231Z" fill="white"/>
</svg>
